<?xml version="1.0" standalone="no"?>
<!DOCTYPE svg PUBLIC "-//W3C//DTD SVG 20010904//EN"
 "http://www.w3.org/TR/2001/REC-SVG-20010904/DTD/svg10.dtd">
<svg version="1.0" xmlns="http://www.w3.org/2000/svg"
 width="1024.000000pt" height="1024.000000pt" viewBox="0 0 1024.000000 1024.000000"
 preserveAspectRatio="xMidYMid meet">
<metadata>
Created by potrace 1.14, written by Peter Selinger 2001-2017
</metadata>
<g transform="translate(0.000000,1024.000000) scale(0.100000,-0.100000)"
fill="#000000" stroke="none">
<path d="M3881 9624 c-12 -19 -21 -39 -21 -44 0 -5 -15 -55 -34 -112 -19 -57
-60 -200 -91 -318 -31 -118 -60 -231 -65 -250 -5 -19 -23 -98 -40 -175 -17
-77 -35 -158 -40 -180 -40 -163 -99 -504 -101 -575 0 -19 -4 -44 -9 -55 -6
-16 -22 9 -82 131 -41 82 -83 163 -94 180 -12 16 -24 36 -28 44 -4 8 -20 38
-36 65 -16 28 -41 73 -56 100 -15 28 -35 61 -45 76 -9 14 -43 74 -75 135 -31
60 -62 116 -69 124 -6 8 -31 50 -53 93 -23 43 -49 85 -57 93 -8 9 -15 20 -15
25 0 10 -157 288 -200 354 -14 22 -34 56 -44 75 -25 49 -100 145 -111 143 -21
-4 -40 -129 -95 -628 -11 -99 -22 -186 -25 -192 -2 -7 -9 -73 -15 -145 -6 -73
-16 -160 -21 -193 -10 -60 -23 -190 -53 -525 -80 -897 -84 -1281 -17 -1820 18
-137 28 -202 71 -420 12 -64 54 -281 81 -424 10 -54 25 -126 33 -160 44 -182
56 -237 66 -301 5 -38 16 -104 23 -145 l13 -75 195 -100 c108 -55 211 -109
230 -121 61 -37 523 -258 627 -300 45 -19 92 -40 105 -48 12 -8 47 -24 77 -36
30 -12 69 -28 85 -35 17 -8 55 -23 85 -33 53 -19 115 -43 290 -115 47 -19 150
-54 230 -79 80 -25 197 -62 260 -82 63 -19 160 -49 215 -65 55 -16 128 -38
163 -49 73 -23 83 -11 15 19 -27 12 -61 28 -78 37 -151 79 -204 107 -225 122
-14 9 -65 38 -115 64 -49 27 -110 62 -135 80 -25 17 -74 47 -110 65 -58 30
-157 89 -246 146 -18 11 -82 52 -143 90 -136 85 -295 189 -313 204 -7 6 -31
23 -53 38 -142 94 -266 180 -300 209 -266 222 -300 257 -319 328 -8 28 -22 98
-31 156 -48 290 -126 637 -200 885 -13 44 -38 134 -56 200 -17 66 -39 143 -47
170 -8 28 -37 136 -64 240 l-49 190 -6 465 c-3 256 -2 725 2 1043 l7 579 22
-54 c12 -29 66 -138 121 -243 54 -104 145 -282 201 -393 57 -112 112 -216 123
-230 10 -15 59 -106 108 -202 147 -286 215 -414 228 -430 7 -8 29 -47 49 -87
20 -40 55 -105 79 -145 24 -41 56 -100 71 -131 14 -31 37 -72 50 -91 13 -19
42 -72 65 -118 24 -46 52 -101 65 -123 12 -22 77 -146 146 -275 68 -129 126
-237 130 -240 3 -3 18 -25 33 -50 15 -25 46 -71 70 -102 23 -31 64 -87 92
-125 27 -37 85 -112 130 -165 44 -53 116 -140 160 -193 114 -137 195 -237 230
-281 17 -21 42 -52 56 -69 14 -16 58 -73 96 -125 39 -52 89 -115 112 -140 22
-25 41 -48 41 -52 0 -5 5 -8 11 -8 7 0 8 7 4 18 -9 22 -57 184 -85 287 -12 44
-30 107 -40 140 -24 80 -82 290 -123 450 -19 72 -55 204 -79 295 -25 91 -52
192 -60 225 -9 33 -25 94 -36 135 -11 41 -41 156 -66 255 -25 99 -50 198 -56
220 -62 230 -82 335 -61 335 6 0 11 16 11 35 0 32 5 38 54 65 29 17 98 74 152
126 55 53 112 103 128 111 16 8 38 23 50 34 33 29 186 142 252 185 32 22 65
44 74 51 46 37 162 121 210 152 67 44 131 91 145 106 23 26 135 95 154 95 18
0 262 -102 286 -120 6 -4 66 -31 135 -60 294 -122 513 -252 584 -344 25 -33
26 -41 26 -150 0 -63 5 -139 11 -168 13 -60 56 -150 91 -189 13 -15 55 -66 93
-113 39 -47 77 -88 85 -92 24 -8 166 -232 154 -243 -2 -2 -30 12 -61 31 -148
90 -211 118 -378 167 -42 13 -116 27 -205 41 -41 6 -85 13 -97 16 -13 2 -23 0
-23 -5 0 -5 10 -13 23 -17 46 -14 281 -126 311 -148 17 -13 47 -32 66 -42 49
-26 210 -145 210 -154 0 -5 8 -11 18 -14 17 -6 50 -32 109 -86 17 -17 70 -52
117 -79 l85 -50 25 20 c71 56 61 276 -21 463 -33 76 -87 169 -118 202 -14 15
-25 30 -25 35 0 4 -43 50 -97 101 -136 131 -143 139 -143 156 0 9 5 77 11 151
l12 136 -33 68 c-32 69 -92 138 -181 210 -49 39 -213 117 -248 117 -11 0 -21
4 -21 8 0 8 -78 36 -210 76 -30 9 -82 20 -115 25 -130 19 -235 43 -341 78
l-110 37 -35 -26 c-43 -33 -262 -143 -394 -199 -55 -23 -104 -45 -110 -49 -5
-4 -28 -14 -50 -22 -42 -17 -424 -199 -510 -244 -27 -15 -102 -52 -165 -84
-147 -73 -299 -158 -317 -176 -8 -8 -17 -14 -21 -14 -4 0 -20 -20 -35 -44
l-28 -44 16 -99 c16 -106 44 -217 81 -330 13 -39 24 -79 24 -89 0 -17 55 -189
161 -502 33 -94 59 -175 59 -179 0 -3 -22 39 -50 95 -27 56 -50 106 -50 112 0
6 -4 18 -10 28 -5 9 -34 79 -64 154 -30 75 -63 152 -72 170 -16 31 -50 122
-124 338 -36 104 -53 151 -74 208 -54 142 -96 278 -121 392 -9 41 -24 106 -32
144 -12 53 -13 70 -3 76 8 5 11 26 8 66 -8 110 22 532 57 814 39 306 55 443
56 473 0 17 6 50 13 72 l12 40 24 -41 c25 -41 79 -108 158 -194 23 -26 42 -52
42 -59 0 -6 4 -11 8 -11 4 0 15 -12 24 -27 9 -16 32 -44 50 -64 18 -20 60 -70
93 -110 156 -190 397 -446 576 -611 128 -119 140 -128 157 -128 13 0 13 2 0
18 -79 92 -157 182 -180 207 -15 17 -28 33 -28 38 0 4 -17 26 -38 50 -92 102
-261 337 -452 626 -25 38 -76 116 -115 175 -38 58 -95 144 -125 191 -30 47
-62 96 -70 108 -8 13 -42 65 -75 117 -70 109 -141 190 -165 190 -10 0 -27 -16
-39 -36z m656 -2516 c-3 -7 -5 -2 -5 12 0 14 2 19 5 13 2 -7 2 -19 0 -25z"/>
<path d="M6319 7566 c-39 -26 -69 -79 -69 -119 0 -61 48 -141 107 -178 35 -22
154 -40 177 -27 9 5 23 33 31 62 14 49 14 60 -1 122 -19 75 -36 97 -105 137
-57 33 -94 34 -140 3z"/>
<path d="M6760 6495 c5 -14 18 -38 28 -53 50 -72 102 -160 102 -171 0 -7 9
-32 20 -56 11 -24 38 -114 60 -201 37 -146 40 -167 40 -294 0 -129 -4 -172
-32 -315 -23 -125 -97 -383 -130 -455 -11 -25 -29 -72 -40 -105 -22 -68 -56
-150 -100 -245 -16 -36 -41 -90 -55 -120 -88 -190 -268 -532 -284 -538 -5 -2
-9 -8 -9 -12 0 -11 -115 -209 -179 -306 -44 -69 -63 -99 -106 -175 -11 -19
-50 -80 -87 -135 -120 -181 -194 -298 -233 -369 -21 -38 -46 -79 -55 -90 -34
-41 -109 -175 -179 -320 -40 -82 -77 -158 -82 -168 -6 -10 -19 -36 -31 -58
-23 -44 -48 -50 -99 -24 -16 9 -84 27 -152 41 -118 25 -130 26 -372 20 -260
-5 -282 -8 -530 -66 -229 -54 -285 -70 -363 -101 -42 -16 -105 -38 -141 -48
-62 -18 -186 -62 -311 -111 -30 -12 -71 -26 -90 -32 -19 -5 -39 -14 -45 -18
-8 -6 -87 -40 -230 -99 -11 -5 -31 -13 -45 -19 -28 -13 -105 -34 -135 -38 -11
-1 -47 -7 -80 -13 -32 -6 -74 -11 -92 -11 l-33 0 21 38 c56 99 75 131 106 179
18 28 33 55 33 59 0 4 11 22 25 40 14 18 25 36 25 41 0 5 15 31 33 58 19 28
78 129 132 225 54 96 118 209 141 250 24 41 68 125 98 185 84 165 149 285 242
441 84 141 104 183 62 128 -12 -16 -25 -31 -28 -34 -4 -3 -22 -27 -40 -55 -19
-27 -38 -54 -42 -60 -16 -19 -153 -226 -168 -253 -25 -43 -68 -109 -103 -157
-18 -24 -57 -78 -87 -120 -62 -86 -103 -141 -127 -169 -9 -11 -31 -40 -50 -64
-44 -59 -105 -133 -120 -150 -7 -7 -13 -17 -13 -20 0 -4 -20 -27 -45 -52 -25
-25 -52 -58 -61 -73 -8 -15 -23 -36 -32 -46 -9 -10 -26 -30 -36 -45 -11 -15
-27 -36 -35 -46 -19 -22 -119 -159 -229 -312 -86 -119 -113 -161 -167 -263
-20 -38 -41 -75 -46 -81 -12 -15 -20 -50 -21 -91 -1 -18 -4 -33 -8 -33 -18 0
-3 -37 27 -63 18 -16 33 -33 33 -37 0 -4 -37 -23 -82 -41 -46 -18 -119 -51
-163 -74 -44 -23 -93 -47 -110 -53 -16 -7 -48 -23 -70 -36 -22 -14 -75 -43
-117 -65 -43 -23 -78 -43 -78 -45 0 -13 217 36 370 84 183 56 225 68 265 75
22 4 89 22 148 41 60 19 113 34 119 34 6 0 77 20 157 46 80 25 169 51 196 59
117 34 348 103 600 180 149 46 304 93 345 105 41 13 80 26 85 30 15 11 138 46
315 91 390 100 666 109 980 33 161 -39 184 -51 465 -229 33 -20 76 -52 95 -71
45 -42 159 -106 178 -99 7 3 16 14 19 25 3 11 9 20 13 20 4 0 10 8 14 18 3 9
10 24 15 32 18 26 51 103 51 117 0 7 3 13 8 13 4 0 22 30 40 68 18 37 50 85
71 107 60 64 176 145 250 175 37 15 81 35 97 43 93 46 306 103 504 133 58 8
159 24 225 34 274 42 684 59 1229 53 320 -4 427 -3 422 6 -4 6 -15 11 -24 11
-9 0 -52 11 -96 24 -87 25 -222 51 -323 62 -35 3 -63 10 -63 15 0 5 7 9 16 9
31 0 73 40 84 80 8 30 7 47 -4 73 -20 50 -29 58 -517 448 -248 199 -330 263
-508 401 -47 36 -93 72 -101 80 -9 8 -33 27 -55 43 -22 17 -94 75 -161 130
-180 147 -217 176 -222 170 -3 -2 22 -31 54 -63 32 -33 104 -107 159 -166 55
-59 113 -119 129 -134 16 -15 49 -49 75 -77 25 -27 60 -64 76 -81 17 -17 48
-51 69 -75 22 -24 69 -76 105 -114 36 -39 118 -127 181 -195 63 -69 159 -169
213 -222 l98 -98 -98 0 c-118 0 -325 -22 -483 -50 -63 -12 -140 -25 -170 -30
-139 -23 -183 -31 -295 -61 -265 -69 -444 -137 -600 -226 -27 -16 -65 -38 -84
-48 -72 -42 -186 -154 -239 -235 -39 -61 -152 -286 -152 -304 0 -6 -9 -26 -21
-45 l-21 -34 -25 29 c-14 16 -46 61 -71 99 -44 67 -161 194 -221 239 -16 11
-57 43 -92 69 -83 63 -229 132 -354 165 -121 32 -416 45 -625 27 -143 -12
-444 -73 -515 -105 -11 -5 -49 -15 -85 -23 -36 -8 -103 -26 -150 -40 -234 -70
-290 -86 -348 -101 -34 -9 -73 -23 -87 -32 -13 -8 -39 -18 -57 -20 -53 -7
-455 -104 -548 -131 -120 -36 -140 -38 -140 -20 0 19 30 85 68 152 l29 50 128
12 c71 7 135 15 142 17 8 3 75 19 151 36 75 17 160 37 187 45 28 9 76 19 108
25 31 5 62 12 68 15 18 12 196 54 292 70 51 9 128 23 172 31 208 38 568 74
745 74 260 0 545 -64 724 -162 163 -90 359 -270 481 -443 19 -26 25 -16 60 94
78 247 212 434 421 583 150 108 527 264 719 298 39 7 90 18 115 26 85 25 222
43 416 56 190 12 237 22 152 32 -24 3 -95 12 -158 21 -220 31 -338 37 -465 26
-239 -21 -472 -67 -575 -113 -31 -14 -80 -33 -110 -43 -71 -22 -268 -120 -300
-149 -14 -12 -56 -47 -95 -76 -38 -30 -72 -58 -74 -63 -2 -4 -19 -23 -37 -40
-19 -17 -45 -47 -56 -66 -12 -20 -36 -55 -53 -77 l-31 -42 -74 73 c-40 41
-115 102 -167 137 l-94 63 39 35 c21 20 65 57 98 83 32 26 113 104 179 174 66
69 154 161 195 203 41 42 100 105 130 140 30 35 75 86 100 115 60 68 124 145
158 188 15 19 45 58 67 85 80 100 134 178 176 252 23 41 55 91 70 110 16 19
29 38 29 43 0 5 9 22 21 38 30 42 166 311 199 394 16 39 42 104 60 145 61 146
170 535 170 612 0 13 7 41 14 63 8 22 22 121 31 220 34 352 -6 640 -125 921
-22 51 -60 121 -85 157 -25 36 -45 67 -45 70 0 7 -55 89 -118 175 -55 73 -79
92 -62 47z"/>
<path d="M2870 4116 c-5 -15 -10 -32 -10 -37 0 -12 -68 -252 -79 -281 -5 -13
-22 -63 -37 -113 -44 -145 -177 -433 -272 -587 -23 -37 -52 -89 -66 -116 -14
-28 -33 -58 -43 -67 -10 -10 -27 -35 -38 -55 -23 -43 -118 -183 -170 -250 -19
-25 -48 -68 -64 -96 -17 -28 -41 -62 -54 -75 -28 -29 -152 -195 -218 -294 -41
-60 -46 -72 -34 -84 20 -20 147 -18 210 4 70 24 225 94 255 115 14 10 61 37
105 60 98 52 209 128 335 229 52 42 106 84 120 92 60 39 398 390 498 519 28
36 63 78 78 93 14 15 24 30 21 33 -2 3 -33 -28 -67 -68 -72 -83 -263 -273
-310 -309 -18 -13 -47 -36 -65 -51 -18 -16 -37 -28 -41 -28 -5 0 -22 -12 -39
-28 -16 -15 -77 -58 -135 -96 -58 -38 -137 -90 -175 -115 -39 -25 -115 -68
-170 -96 -55 -27 -102 -52 -105 -56 -8 -9 -77 -49 -84 -49 -4 0 15 28 42 63
26 34 65 90 86 125 22 34 42 62 46 62 3 0 21 28 39 63 19 34 47 81 62 105 27
40 51 88 109 217 13 28 39 86 59 130 33 72 62 156 106 310 8 28 23 79 34 116
11 36 25 96 31 134 6 38 13 72 15 75 3 4 9 52 15 106 6 55 18 145 27 201 13
78 14 106 5 115 -8 8 -14 5 -22 -16z"/>
<path d="M3439 3253 c-13 -16 -12 -17 4 -4 16 13 21 21 13 21 -2 0 -10 -8 -17
-17z"/>
<path d="M2107 1211 c-20 -33 -22 -45 -6 -36 11 7 32 55 26 61 -2 2 -11 -10
-20 -25z"/>
<path d="M9920 80 l0 -80 160 0 160 0 0 80 0 80 -160 0 -160 0 0 -80z"/>
</g>
</svg>
